<svg id="富深新平台logo128" xmlns="http://www.w3.org/2000/svg" width="127" height="127" viewBox="0 0 127 127">
  <defs>
    <style>
      .cls-1 {
        fill: #1890ff;
      }

      .cls-2 {
        fill: #fff;
        fill-rule: evenodd;
      }
    </style>
  </defs>
  <circle id="椭圆_2" data-name="椭圆 2" class="cls-1" cx="63.5" cy="63.5" r="63.5"/>
  <g id="组_2" data-name="组 2">
    <path id="_1" data-name="1" class="cls-2" d="M1018.19,526.53v32.475a2.32,2.32,0,0,1-2.32,2.319h-13.92a2.316,2.316,0,0,1-2.315-2.319V511.452l0.016,0a4.035,4.035,0,0,1,4.179-3.476,4.941,4.941,0,0,1,3.92,1.741v0l0.13,0.2c0.03,0.048.06,0.1,0.09,0.146Z" transform="translate(-966 -461)"/>
    <path id="_1_拷贝" data-name="1 拷贝" class="cls-2" d="M1059.37,537.838a4,4,0,0,1-4.2,3.769,4.289,4.289,0,0,1-3.53-1.755l-0.06.016-11.35-17.978L1040.81,490a2.32,2.32,0,0,1,2.32-2.319h13.92a2.32,2.32,0,0,1,2.32,2.319v47.553l-0.02,0A2.692,2.692,0,0,1,1059.37,537.838Z" transform="translate(-966 -461)"/>
    <path id="形状_1" data-name="形状 1" class="cls-2" d="M1057.05,561.324h-14.5l-0.34-.54a2.371,2.371,0,0,1-.74-1.2l-32.91-53.2a6.625,6.625,0,0,0-4.29-1.311c-2.04,0-3.73.757-4.01,1.74h-0.625V491.155a2.316,2.316,0,0,1,2.315-2.319h13.92a2.31,2.31,0,0,1,1.66.7l0.08-.124,31.9,52.191v0.06h0.08c0.46,0.958,2.73,1.688,4.87,1.688,2.09,0,3.83-.7,4.24-1.624l0.67,0v17.269A2.32,2.32,0,0,1,1057.05,561.324Z" transform="translate(-966 -461)"/>
  </g>
</svg>
