<?xml version="1.0" encoding="UTF-8"?>
<svg width="26px" height="26px" viewBox="0 0 26 26" version="1.1" xmlns="http://www.w3.org/2000/svg" xmlns:xlink="http://www.w3.org/1999/xlink">
    <!-- Generator: Sketch 53.2 (72643) - https://sketchapp.com -->
    <title>形状</title>
    <desc>Created with Sketch.</desc>
    <g id="Templates-模板页面" stroke="none" stroke-width="1" fill="none" fill-rule="evenodd">
        <g id="帮助首页1.0" transform="translate(-1083.000000, -20.000000)" fill="#FFFFFF" fill-rule="nonzero">
            <g id="header">
                <g id="电话" transform="translate(1083.000000, 15.000000)">
                    <g id="电-话" transform="translate(13.000000, 18.000000) rotate(90.000000) translate(-13.000000, -18.000000) translate(0.000000, 5.000000)">
                        <path d="M18.2015352,11.2666682 C18.2015352,11.7863589 18.5469695,12.1333333 19.0666632,12.1333333 C19.5878989,12.1333333 19.9333333,11.7863589 19.9333333,11.2666682 L19.9333333,11.2666813 C19.9248717,8.39831094 17.6017021,6.07514826 14.7333368,6.06666667 C14.2136431,6.06666667 13.8666667,6.41209902 13.8666667,6.93333176 C13.8666667,7.4530224 14.2151853,7.79999686 14.7333368,7.79999686 L14.7333369,7.79999686 C16.6458206,7.80508107 18.1949332,9.35418462 18.2000173,11.2666572 L18.2015352,11.2666682 Z M22.3774399,11.1878788 C22.3774399,11.7548151 22.7542759,12.1333333 23.3212121,12.1333333 C23.8898307,12.1333333 24.2666667,11.7548151 24.2666667,11.1878788 C24.2666667,5.98956109 20.0104389,1.73333333 14.8121212,1.73333333 C14.2451849,1.73333333 13.8666667,2.11185161 13.8666667,2.67878788 C13.8666667,3.24740645 14.2468672,3.62424242 14.8121212,3.62424242 L14.8121211,3.62424242 C18.9846806,3.63624973 22.3645071,7.01531934 22.3774398,11.1878788 L22.3774399,11.1878788 Z M9.90732794,8.26034564 L9.90732793,8.26034565 C10.9192134,7.27804008 10.9988074,5.6800953 10.0895475,4.60204776 L7.25700944,1.03488185 C6.34265769,-0.151461197 4.60343703,-0.336979863 3.41575593,0.57759461 C3.32464615,0.670353942 3.23353637,0.670353942 3.23353637,0.761485918 L0.763810479,3.23018605 C-1.61155171,5.60775421 1.77089897,12.0097755 7.89803184,18.1367735 C14.0219108,24.2637716 20.3296363,27.5591689 22.7066254,25.2711054 L25.1763513,22.8007779 C26.2745496,21.7039394 26.2745496,19.9659225 25.1763513,18.960216 L24.9941317,18.7763247 L21.4278345,15.9414693 L21.4278346,15.9414694 C20.3496352,15.0324152 18.752044,15.1127405 17.7704276,16.1253607 L16.2166804,17.6811137 C14.5718234,16.6737799 13.109186,15.5769415 11.8271412,14.2962117 C10.5483504,13.015482 9.45177905,11.5524883 8.44469056,9.90560331 L9.90895493,8.26034567 L9.90732794,8.26034564 Z M8.71510526,5.69420246 C8.99182269,6.06420754 8.99182269,6.61594078 8.62177453,6.89098881 L6.59797132,9.00951349 L6.5979714,9.0095134 C6.31157551,9.30254495 6.23836154,9.74308225 6.41458444,10.1129799 L6.41458361,10.1129784 C7.49930775,12.1059177 8.86278581,13.9339766 10.4638274,15.5419025 C12.0717358,17.1414377 13.8990533,18.5052175 15.8917462,19.5890377 L15.8917462,19.5890377 C16.2621193,19.7660134 16.7036161,19.692766 16.9969785,19.4056724 L19.1124751,17.2887849 L19.1124751,17.2887849 C19.4225541,16.9427365 19.9502233,16.9023184 20.3094008,17.1971022 L23.8985404,20.1424082 C23.8985404,20.1424082 23.9902338,20.1424082 23.9902338,20.2340908 L23.9902338,20.2340908 C24.3460751,20.5724188 24.3602436,21.1351187 24.0218767,21.4909211 C24.0115962,21.5017313 24.0010453,21.512281 23.9902338,21.5225604 L21.504689,24.0078157 C20.3094007,25.2029649 14.6047645,22.1659763 9.1752083,16.8287348 C3.7456521,11.4914934 0.800003251,5.69747571 1.99856632,4.49905217 L4.57252963,1.92211411 C4.94257779,1.6454289 5.587706,1.6454289 5.86278605,2.10711665 L8.71510417,5.69583852 L8.71510526,5.69420246 Z" id="形状"></path>
                    </g>
                </g>
            </g>
        </g>
    </g>
</svg>